<svg width="25" height="25" viewBox="0 0 25 25" fill="none" xmlns="http://www.w3.org/2000/svg">
<path d="M16.2969 14.9692H15.5069L15.2269 14.6992C16.2069 13.5592 16.7969 12.0792 16.7969 10.4692C16.7969 6.87924 13.8869 3.96924 10.2969 3.96924C6.70688 3.96924 3.79688 6.87924 3.79688 10.4692C3.79688 14.0592 6.70688 16.9692 10.2969 16.9692C11.9069 16.9692 13.3869 16.3792 14.5269 15.3992L14.7969 15.6792V16.4692L19.7969 21.4592L21.2869 19.9692L16.2969 14.9692ZM10.2969 14.9692C7.80688 14.9692 5.79688 12.9592 5.79688 10.4692C5.79688 7.97924 7.80688 5.96924 10.2969 5.96924C12.7869 5.96924 14.7969 7.97924 14.7969 10.4692C14.7969 12.9592 12.7869 14.9692 10.2969 14.9692Z" fill="black" fill-opacity="0.56"/>
</svg>
